PathFileType	4	(X/Y/Z)	/Users/itak/Documents/Research/Walk-IL/dataset/trc/00565_00009.trc
DataRate	CameraRate	NumFrames	NumMarkers	Units	OrigDataRate	OrigDataStartFrame	OrigNumFrames
100.000000	100.000000	4	54	mm	100.000000	214	573
Frame#	Time	RPSI			LPSI			L3			STRN			T10			C7			CLAV			RBAK			LBAK			LSHO			LUPA			LAEL			LAOL			LWTS			LWPS			LFRA			LHPS			LHTS			RSHO			RUPA			RAEL			RAOL			RWTS			RWPS			RFRA			RIFD			RHTS			RHPS			RBHD			LFHD			RFHD			LBHD			RHIP			RASI			LASI			LKNE			LTHI			LANK			LTIP			LTOE			LMT1			LMT5			LHEE			RKNE			RTHI			RANK			RTIP			RTOE			RMT1			RMT5			RHEE			LHIP			LIFD			*53			
		X1	Y1	Z1	X2	Y2	Z2	X3	Y3	Z3	X4	Y4	Z4	X5	Y5	Z5	X6	Y6	Z6	X7	Y7	Z7	X8	Y8	Z8	X9	Y9	Z9	X10	Y10	Z10	X11	Y11	Z11	X12	Y12	Z12	X13	Y13	Z13	X14	Y14	Z14	X15	Y15	Z15	X16	Y16	Z16	X17	Y17	Z17	X18	Y18	Z18	X19	Y19	Z19	X20	Y20	Z20	X21	Y21	Z21	X22	Y22	Z22	X23	Y23	Z23	X24	Y24	Z24	X25	Y25	Z25	X26	Y26	Z26	X27	Y27	Z27	X28	Y28	Z28	X29	Y29	Z29	X30	Y30	Z30	X31	Y31	Z31	X32	Y32	Z32	X33	Y33	Z33	X34	Y34	Z34	X35	Y35	Z35	X36	Y36	Z36	X37	Y37	Z37	X38	Y38	Z38	X39	Y39	Z39	X40	Y40	Z40	X41	Y41	Z41	X42	Y42	Z42	X43	Y43	Z43	X44	Y44	Z44	X45	Y45	Z45	X46	Y46	Z46	X47	Y47	Z47	X48	Y48	Z48	X49	Y49	Z49	X50	Y50	Z50	X51	Y51	Z51	X52	Y52	Z52	X53	Y53	Z53	X54	Y54	Z54	

215	2.14	-827.961669921875	975.807373046875	-144.3235626220703	-803.7951049804688	975.0090942382812	-275.8779907226562	-804.6041870117188	1079.617309570312	-215.7090301513672	-567.1739501953125	1252.100341796875	-168.2753295898438	-805.5679321289062	1205.041381835938	-218.9323425292969	-746.0105590820312	1476.439819335938	-187.1912384033203	-580.6275634765625	1363.827392578125	-164.7677612304688	-841.2571411132812	1353.3837890625	-124.0581970214844	-763.8141479492188	1429.030517578125	-287.2822265625	-647.810302734375	1448.072875976562	-345.3847961425781	-640.469970703125	1322.553833007812	-426.1315002441406	-605.6417846679688	1103.745849609375	-446.4075622558594	-702.55908203125	1089.103881835938	-421.692626953125	-506.9645080566406	873.832763671875	-368.7942504882812	-527.067138671875	845.6536865234375	-448.8171997070312	-573.9882202148438	1020.731628417969	-445.2470092773438	-515.62060546875	786.8391723632812	-435.9762268066406	-478.4807739257812	798.2217407226562	-380.458740234375	-724.2028198242188	1429.914916992188	-24.10179328918457	-761.3991088867188	1364.52490234375	35.15012741088867	-803.62548828125	1078.05859375	66.76565551757812	-846.1159057617188	1064.976196289062	21.03079223632812	-691.3958129882812	842.3651123046875	80.35140228271484	-760.9873657226562	830.3222045898438	123.9751815795898	-803.1868286132812	1022.408020019531	76.79514312744141	-707.5925903320312	668.8411254882812	84.52791595458984	-684.000732421875	748.3463745117188	103.7499084472656	-754.8279418945312	754.6075439453125	127.9634475708008	-650.5540771484375	1652.8876953125	-94.28614807128906	-465.7344970703125	1640.575439453125	-187.6103057861328	-517.4661254882812	1638.308715820312	-53.09498977661133	-585.3651123046875	1652.01708984375	-246.4566802978516	-713.8029174804688	915.220947265625	-6.26556396484375	-624.2844848632812	950.2328491210938	-51.35014724731445	-586.3241577148438	926.1254272460938	-324.8661804199219	-587.5811157226562	449.8865966796875	-358.3647155761719	-599.8681640625	622.3019409179688	-374.2974548339844	-1010.274719238281	206.5715942382812	-432.9302673339844	-808.6818237304688	327.7447509765625	-403.1577453613281	-895.3709716796875	40.99644470214844	-361.1103820800781	-938.1554565429688	99.73870849609375	-331.0688171386719	-947.0972290039062	104.4178314208984	-435.828857421875	-1046.584838867188	268.5729064941406	-384.8181457519531	-554.0077514648438	493.4569702148438	-55.98811721801758	-638.0211791992188	771.970458984375	-2.559186697006226	-663.6690673828125	38.84414291381836	-129.0529937744141	-548.5161743164062	345.7254333496094	-80.76325988769531	-438.2168579101562	39.90001678466797	-120.6762390136719	-492.0506591796875	36.58428573608398	-175.9236145019531	-539.4541015625	41.5054817199707	-82.73313140869141	-705.8402099609375	28.35521507263184	-192.1861572265625	-651.7529907226562	893.150390625	-380.9410400390625	-496.3436279296875	704.9628295898438	-364.5321350097656	nan	nan	nan	
216	2.15	-820.12255859375	977.0897827148438	-141.4770355224609	-795.7278442382812	976.2669677734375	-272.9551391601562	-796.7507934570312	1081.226806640625	-212.2554168701172	-559.5713500976562	1253.962158203125	-165.0574645996094	-797.9146728515625	1206.571655273438	-215.2127075195312	-738.6890869140625	1478.0888671875	-183.4182586669922	-573.207275390625	1365.643676757812	-161.6829071044922	-833.6156616210938	1354.94970703125	-119.9316635131836	-756.839111328125	1430.589599609375	-283.3399963378906	-641.1728515625	1449.707763671875	-342.0607299804688	-634.4290161132812	1324.268310546875	-422.9399719238281	-600.053955078125	1105.401977539062	-443.7789306640625	-696.7534790039062	1090.911743164062	-418.2998962402344	-501.252685546875	875.1395263671875	-367.4026184082031	-521.9935302734375	847.205810546875	-447.3182067871094	-568.5322265625	1022.337219238281	-443.0320129394531	-510.5859680175781	788.3267822265625	-434.696533203125	-472.9772644042969	799.554443359375	-379.4900207519531	-716.2365112304688	1431.600708007812	-20.46140670776367	-753.056884765625	1366.268798828125	39.03961181640625	-794.3972778320312	1079.73779296875	71.21178436279297	-837.2120361328125	1066.340942382812	26.03931427001953	-679.8417358398438	845.1008911132812	83.46482849121094	-748.897705078125	832.2890625	127.9309844970703	-793.4144897460938	1023.984130859375	81.24359130859375	-693.9033813476562	671.433837890625	87.93928527832031	-671.149658203125	751.2241821289062	106.8794631958008	-741.7744750976562	756.6476440429688	131.8171997070312	-643.1178588867188	1654.561645507812	-90.98486328125	-458.1249084472656	1642.225952148438	-183.9573822021484	-510.1425170898438	1639.946411132812	-49.52228927612305	-577.6212768554688	1653.758666992188	-243.0388793945312	-706.7689819335938	915.9671020507812	-3.157480716705322	-616.8143920898438	951.4661254882812	-47.62824630737305	-577.5598754882812	928.698974609375	-321.105712890625	-567.4033813476562	453.6215515136719	-354.2425842285156	-584.24755859375	625.6857299804688	-370.7307739257812	-989.6283569335938	210.9058685302734	-429.82275390625	-788.07275390625	331.4864196777344	-399.4299621582031	-873.5798950195312	44.16818237304688	-361.0849914550781	-916.4035034179688	102.691047668457	-329.8226013183594	-925.8917236328125	109.3023376464844	-434.5555419921875	-1026.279052734375	271.6416625976562	-380.5851745605469	-551.530029296875	492.6411437988281	-54.86889266967773	-632.4481811523438	771.7772216796875	-0.1428507715463638	-663.6721801757812	38.8703498840332	-129.1285095214844	-547.0288696289062	345.0126647949219	-80.06380462646484	-438.2192077636719	39.86427307128906	-120.7256469726562	-492.0472717285156	36.55212020874023	-175.9372406005859	-539.4349975585938	41.47804641723633	-82.78877258300781	-705.849853515625	28.41389083862305	-192.2387847900391	-642.0313110351562	894.9441528320312	-376.97900390625	-490.9390563964844	706.200927734375	-363.5724487304688	nan	nan	nan	
217	2.16	-812.3443603515625	978.3417358398438	-138.80810546875	-787.6219482421875	977.556396484375	-270.1876831054688	-789.0311889648438	1082.810791015625	-208.9276275634766	-552.02734375	1255.842529296875	-161.8135375976562	-790.3150024414062	1208.086059570312	-211.5835418701172	-731.433837890625	1479.717895507812	-179.6992492675781	-565.857666015625	1367.46728515625	-158.6138153076172	-826.0529174804688	1356.496215820312	-115.8927688598633	-749.9143676757812	1432.12109375	-279.4328918457031	-634.5926513671875	1451.308715820312	-338.7672119140625	-628.4755859375	1325.955688476562	-419.7812194824219	-594.5745239257812	1107.05126953125	-441.2274780273438	-691.0401000976562	1092.689697265625	-414.8949584960938	-495.5757751464844	876.4599609375	-366.1820983886719	-517.0433959960938	848.7510375976562	-445.94921875	-563.205810546875	1023.928344726562	-440.9213256835938	-505.5831298828125	789.833251953125	-433.5739135742188	-467.4582214355469	800.9262084960938	-378.7239990234375	-708.402099609375	1433.296997070312	-16.87583160400391	-744.8370361328125	1368.019775390625	42.86725234985352	-785.1410522460938	1081.418334960938	75.65260314941406	-828.2850952148438	1067.670166015625	31.06214332580566	-668.1751098632812	847.9080200195312	86.56868743896484	-736.6480102539062	834.3316040039062	131.9137115478516	-783.5719604492188	1025.568237304688	85.68229675292969	-680.056396484375	674.1195068359375	91.35983276367188	-658.1475830078125	754.1959838867188	109.9982376098633	-728.5366821289062	758.77197265625	135.6889953613281	-635.7008666992188	1656.236694335938	-87.71794891357422	-450.5440063476562	1643.819580078125	-180.3403778076172	-502.8433532714844	1641.539428710938	-45.98646545410156	-569.90283203125	1655.47998046875	-239.6523284912109	-699.9579467773438	916.63818359375	-0.1437736600637436	-609.5219116210938	952.6785278320312	-43.87932968139648	-568.7468872070312	931.3526611328125	-317.2724304199219	-547.4842529296875	457.7023010253906	-349.8112487792969	-568.700927734375	629.29248046875	-367.0034484863281	-968.1737060546875	213.7122192382812	-426.4814147949219	-767.3274536132812	334.7469482421875	-395.4605407714844	-849.7701416015625	47.17511367797852	-360.7265930175781	-893.1403198242188	104.8568572998047	-328.2507934570312	-903.1007690429688	113.1834259033203	-432.9665832519531	-1005.570861816406	272.9490661621094	-376.1490478515625	-549.2158203125	491.8659362792969	-53.82194900512695	-627.037109375	771.55908203125	2.201860666275024	-663.6742553710938	38.9017333984375	-129.2016296386719	-545.685302734375	344.3525695800781	-79.40827178955078	-438.2125244140625	39.81174087524414	-120.7738189697266	-492.0321960449219	36.52241134643555	-175.9605865478516	-539.409423828125	41.45132446289062	-82.84752655029297	-705.849609375	28.49247360229492	-192.2976379394531	-632.4761352539062	897.0123901367188	-373.2039489746094	-485.3692626953125	707.4703369140625	-362.7959899902344	nan	nan	nan	
218	2.17	-804.608154296875	979.5731201171875	-136.3111114501953	-779.462890625	978.8783569335938	-267.5727233886719	-781.418701171875	1084.351318359375	-205.7278594970703	-544.5299072265625	1257.737915039062	-158.5321960449219	-782.7594604492188	1209.5751953125	-208.046142578125	-724.2410278320312	1481.314575195312	-176.0374908447266	-558.5662841796875	1369.296142578125	-155.5445861816406	-818.5615234375	1358.00830078125	-111.9450378417969	-743.0247192382812	1433.61474609375	-275.5668029785156	-628.051513671875	1452.877197265625	-335.4958190917969	-622.5780639648438	1327.612670898438	-416.6467590332031	-589.1875610351562	1108.697021484375	-438.7414855957031	-685.4049072265625	1094.442016601562	-411.4686889648438	-489.9307250976562	877.7872924804688	-365.1189880371094	-512.2179565429688	850.28271484375	-444.69921875	-557.9979858398438	1025.505981445312	-438.9005737304688	-500.6298217773438	791.3496704101562	-432.5982666015625	-461.931884765625	802.327880859375	-378.1493530273438	-700.7069091796875	1434.999145507812	-13.34573650360107	-736.7556762695312	1369.772827148438	46.63032150268555	-775.875	1083.091796875	80.06844329833984	-819.34033203125	1068.960693359375	36.06042861938477	-656.4219360351562	850.7821044921875	89.68411254882812	-724.275390625	836.4485473632812	135.9135437011719	-773.677978515625	1027.15673828125	90.08728790283203	-666.0897216796875	676.8946533203125	94.79072570800781	-645.031494140625	757.256591796875	113.1247177124023	-715.1624755859375	760.9801635742188	139.5686340332031	-628.3097534179688	1657.9111328125	-84.47798156738281	-442.995849609375	1645.351196289062	-176.7503967285156	-495.5743408203125	1643.082275390625	-42.48007965087891	-562.2163696289062	1657.175537109375	-236.2878875732422	-693.3448486328125	917.2449340820312	2.779300689697266	-602.3934326171875	953.8485717773438	-40.11011123657227	-559.88330078125	934.0631713867188	-313.3663330078125	-527.8570556640625	462.0684814453125	-345.0603942871094	-553.244873046875	633.074951171875	-363.1124267578125	-945.9459228515625	214.9761505126953	-422.94677734375	-746.4461669921875	337.4652709960938	-391.2610778808594	-824.2002563476562	49.81689834594727	-359.9021911621094	-868.5548706054688	106.1669921875	-326.2956848144531	-878.8888549804688	115.9562301635742	-431.0064697265625	-984.4315795898438	272.5478210449219	-371.6072082519531	-547.0582885742188	491.1342468261719	-52.83029556274414	-621.7454833984375	771.3447265625	4.488001346588135	-663.6766357421875	38.93682861328125	-129.2688598632812	-544.4822998046875	343.7452697753906	-78.77999114990234	-438.2000427246094	39.74882507324219	-120.8189163208008	-492.0099792480469	36.49625015258789	-175.9911499023438	-539.3798217773438	41.42459487915039	-82.90399169921875	-705.8357543945312	28.58633804321289	-192.3652648925781	-623.080078125	899.328125	-369.604736328125	-479.6606140136719	708.7688598632812	-362.2034606933594	nan	nan	nan	
